# xmcd
# 
# Track frame offsets:
#     150
#     17957
#     33032
#     50447
#     64145
#     82467
#     95137
#     109027
#     125055
#     141735
#     158877
#     171097
#     185845
#     200902
# 
# Disc length: 2890
# 
# Revision: 1
# Processed by: cddbd v1.5.2PL0 Copyright (c) Steve Scherf et al.
# Submitted via: fre:ac v1.0.31
# 
DISCID=dc0b480e
DTITLE=Jonny Hill - Ohne Grenzen
DYEAR=0
DGENRE=Ballad
TTITLE0=Von Liebe keine Rede
TTITLE1=Seit Du wieder bei mir bist
TTITLE2=Sie waren sich zu spät begegnet
TTITLE3=Alles gehabt und Alles verloren
TTITLE4=Sie macht was Sie will
TTITLE5=Es ist niemals zu spät
TTITLE6=Da sind so viele Fragen
TTITLE7=Seine Freunde sind die Träume
TTITLE8=Nie wieder einsam
TTITLE9=Express-Container Paris
TTITLE10=Wenn ich nur fliegen könnte
TTITLE11=Augen die voll Hunger sind
TTITLE12=Die Nacht kommt
TTITLE13=Tief in Dir
EXTD=
EXTT0=
EXTT1=
EXTT2=
EXTT3=
EXTT4=
EXTT5=
EXTT6=
EXTT7=
EXTT8=
EXTT9=
EXTT10=
EXTT11=
EXTT12=
EXTT13=
PLAYORDER=
